<?xml version="1.0" standalone="no"?>
<!DOCTYPE svg PUBLIC "-//W3C//DTD SVG 20010904//EN"
 "http://www.w3.org/TR/2001/REC-SVG-20010904/DTD/svg10.dtd">
<svg version="1.0" xmlns="http://www.w3.org/2000/svg"
 width="1024.000000pt" height="1024.000000pt" viewBox="0 0 1024.000000 1024.000000"
 preserveAspectRatio="xMidYMid meet">
<metadata>
Created by potrace 1.14, written by Peter Selinger 2001-2017
</metadata>
<g transform="translate(0.000000,1024.000000) scale(0.100000,-0.100000)"
fill="#000000" stroke="none">
<path d="M5008 9465 c-2 -1 -48 -5 -103 -9 -239 -16 -406 -50 -655 -133 -89
-29 -338 -144 -405 -185 -143 -90 -231 -150 -312 -214 -128 -101 -370 -344
-461 -464 -39 -52 -75 -99 -80 -105 -4 -5 -39 -59 -76 -119 -164 -261 -268
-528 -326 -831 -11 -55 -22 -122 -25 -150 -4 -27 -8 -61 -11 -75 -12 -70 -16
-283 -17 -871 l-1 -646 -241 -1 c-262 -1 -312 -5 -404 -32 -40 -12 -173 -72
-181 -81 -3 -3 -23 -17 -45 -31 -52 -32 -143 -123 -194 -192 -37 -50 -116
-196 -107 -196 3 0 -1 -15 -9 -33 -38 -91 -38 -112 -40 -1852 -1 -1756 0
-1779 40 -1910 20 -67 61 -149 104 -210 37 -54 185 -205 200 -205 5 0 16 -6
23 -14 20 -19 111 -65 178 -88 132 -47 37 -46 3294 -44 1689 2 3082 5 3096 9
14 3 36 8 50 11 68 13 192 66 259 111 91 62 241 219 241 255 0 5 4 10 8 10 10
0 54 94 76 160 39 120 39 120 40 1855 1 924 -2 1716 -7 1760 -8 83 -58 248
-82 275 -7 8 -14 20 -16 25 -5 24 -84 129 -139 183 -89 89 -201 159 -311 196
-90 29 -181 38 -421 39 l-243 2 -2 635 c-1 591 -5 793 -18 880 -2 19 -7 57
-10 84 -8 69 -52 286 -69 338 -60 190 -79 244 -108 307 -34 76 -98 204 -120
241 -31 52 -170 263 -182 277 -6 6 -31 37 -56 68 -62 79 -298 321 -361 370
-28 22 -65 53 -82 68 -72 64 -312 213 -453 283 -83 41 -157 74 -165 74 -8 0
-19 4 -24 8 -9 8 -160 60 -195 67 -8 2 -49 13 -90 24 -41 11 -91 23 -110 26
-19 3 -46 7 -60 10 -14 3 -41 7 -60 10 -19 3 -46 7 -60 10 -70 12 -461 29
-472 20z m323 -1373 c179 -33 323 -91 468 -187 96 -63 254 -218 325 -318 94
-134 172 -315 192 -447 3 -19 7 -41 10 -49 12 -36 16 -237 16 -781 0 -327 -1
-607 -1 -621 l-1 -26 -1222 1 -1221 1 0 630 c1 573 4 737 18 799 3 11 7 32 9
46 13 77 69 251 92 281 5 8 20 34 33 59 74 140 258 338 403 432 76 50 186 108
212 112 6 1 16 4 21 8 18 10 128 41 210 57 91 19 343 21 436 3z"/>
</g>
</svg>
